<?xml version="1.0" encoding="UTF-8"?>
<svg width="413px" height="177px" viewBox="0 0 413 177" version="1.1" xmlns="http://www.w3.org/2000/svg" xmlns:xlink="http://www.w3.org/1999/xlink">
    <!-- Generator: Sketch 52.5 (67469) - http://www.bohemiancoding.com/sketch -->
    <title>Group</title>
    <desc>Created with Sketch.</desc>
    <defs>
        <path d="M32.083,38.791 C30.848,40.766 29.036,42.331 26.649,43.483 C24.261,44.636 21.4,45.212 18.066,45.212 C13.003,45.212 8.835,43.999 5.562,41.569 C2.29,39.141 0.509,35.683 0.221,31.196 L13.126,31.196 C13.25,32.719 13.723,33.851 14.546,34.592 C15.37,35.333 16.378,35.703 17.572,35.703 C18.642,35.703 19.476,35.436 20.073,34.9 C20.669,34.366 20.968,33.604 20.968,32.616 C20.968,31.299 20.371,30.28 19.178,29.559 C17.983,28.839 16.09,28.046 13.497,27.182 C10.739,26.235 8.464,25.31 6.674,24.403 C4.883,23.499 3.34,22.14 2.043,20.328 C0.746,18.517 0.098,16.191 0.098,13.351 C0.098,10.634 0.797,8.298 2.197,6.343 C3.596,4.388 5.51,2.906 7.94,1.897 C10.368,0.889 13.126,0.384 16.214,0.384 C21.235,0.384 25.238,1.568 28.224,3.935 C31.208,6.302 32.844,9.626 33.132,13.907 L20.104,13.907 C19.939,12.548 19.517,11.54 18.838,10.881 C18.159,10.223 17.263,9.893 16.152,9.893 C15.205,9.893 14.463,10.14 13.929,10.634 C13.394,11.128 13.126,11.869 13.126,12.857 C13.126,14.092 13.713,15.06 14.886,15.759 C16.06,16.459 17.901,17.241 20.413,18.105 C23.17,19.093 25.455,20.061 27.266,21.007 C29.077,21.955 30.641,23.333 31.959,25.145 C33.276,26.956 33.935,29.303 33.935,32.184 C33.935,34.613 33.317,36.814 32.083,38.791" id="path-1"></path>
        <linearGradient x1="0.000295534474%" y1="50%" x2="1218.42391%" y2="50%" id="linearGradient-3">
            <stop stop-color="#8E5692" offset="0%"></stop>
            <stop stop-color="#1D5C97" offset="100%"></stop>
        </linearGradient>
        <path d="M15.244,14.617 C13.473,16.614 12.588,19.34 12.588,22.798 C12.588,26.174 13.473,28.871 15.244,30.887 C17.013,32.904 19.442,33.913 22.529,33.913 C25.575,33.913 27.983,32.904 29.754,30.887 C31.523,28.871 32.409,26.174 32.409,22.798 C32.409,19.34 31.534,16.614 29.785,14.617 C28.035,12.621 25.617,11.622 22.529,11.622 C19.442,11.622 17.013,12.621 15.244,14.617 Z M33.798,3.255 C37.194,5.169 39.87,7.835 41.825,11.251 C43.78,14.669 44.758,18.517 44.758,22.798 C44.758,27.08 43.771,30.928 41.794,34.345 C39.818,37.762 37.132,40.427 33.736,42.341 C30.34,44.255 26.605,45.212 22.529,45.212 C18.454,45.212 14.708,44.255 11.292,42.341 C7.875,40.427 5.179,37.762 3.203,34.345 C1.227,30.928 0.239,27.08 0.239,22.798 C0.239,18.517 1.227,14.669 3.203,11.251 C5.179,7.835 7.875,5.169 11.292,3.255 C14.708,1.341 18.454,0.384 22.529,0.384 C26.646,0.384 30.402,1.341 33.798,3.255 Z" id="path-4"></path>
        <linearGradient x1="-135.090411%" y1="50%" x2="790.981603%" y2="50%" id="linearGradient-6">
            <stop stop-color="#8E5692" offset="0%"></stop>
            <stop stop-color="#1D5C97" offset="100%"></stop>
        </linearGradient>
        <polyline id="path-7" points="30.12 0.063 30.12 9.757 12.584 9.757 12.584 17.538 25.674 17.538 25.674 26.676 12.584 26.676 12.584 43.78 0.42 43.78 0.42 0.063 30.12 0.063"></polyline>
        <linearGradient x1="-445.528283%" y1="49.7175012%" x2="942.613131%" y2="49.7175012%" id="linearGradient-9">
            <stop stop-color="#8E5692" offset="0%"></stop>
            <stop stop-color="#1D5C97" offset="100%"></stop>
        </linearGradient>
        <polyline id="path-10" points="36.26 0.063 36.26 9.757 24.467 9.757 24.467 43.78 12.364 43.78 12.364 9.757 0.694 9.757 0.694 0.063 36.26 0.063"></polyline>
        <linearGradient x1="-524.646854%" y1="49.7175012%" x2="634.544509%" y2="49.7175012%" id="linearGradient-12">
            <stop stop-color="#8E5692" offset="0%"></stop>
            <stop stop-color="#1D5C97" offset="100%"></stop>
        </linearGradient>
        <polyline id="path-13" points="12.667 9.757 12.667 16.982 26.806 16.982 26.806 26.182 12.667 26.182 12.667 34.085 28.659 34.085 28.659 43.78 0.502 43.78 0.502 0.063 28.659 0.063 28.659 9.757 12.667 9.757"></polyline>
        <linearGradient x1="-882.210108%" y1="49.7175012%" x2="582.001279%" y2="49.7175012%" id="linearGradient-15">
            <stop stop-color="#8E5692" offset="0%"></stop>
            <stop stop-color="#1D5C97" offset="100%"></stop>
        </linearGradient>
        <path d="M31.668,2.7 C34.611,4.079 37.01,6.034 38.862,8.565 C40.714,11.097 41.97,14.03 42.628,17.364 L29.847,17.364 C29.146,15.635 28.057,14.288 26.575,13.32 C25.093,12.353 23.384,11.869 21.45,11.869 C18.773,11.869 16.612,12.868 14.966,14.864 C13.319,16.861 12.496,19.525 12.496,22.86 C12.496,26.194 13.319,28.871 14.966,30.887 C16.612,32.904 18.773,33.913 21.45,33.913 C23.384,33.913 25.093,33.418 26.575,32.431 C28.057,31.442 29.146,30.084 29.847,28.355 L42.628,28.355 C41.641,33.46 39.304,37.524 35.62,40.55 C31.936,43.576 27.274,45.088 21.635,45.088 C17.313,45.088 13.535,44.153 10.304,42.279 C7.072,40.406 4.582,37.782 2.833,34.406 C1.083,31.032 0.209,27.182 0.209,22.86 C0.209,18.538 1.083,14.689 2.833,11.313 C4.582,7.938 7.072,5.314 10.304,3.44 C13.535,1.568 17.313,0.631 21.635,0.631 C25.38,0.631 28.725,1.321 31.668,2.7" id="path-16"></path>
        <linearGradient x1="-714.563993%" y1="49.8616641%" x2="257.354252%" y2="49.8616641%" id="linearGradient-18">
            <stop stop-color="#8E5692" offset="0%"></stop>
            <stop stop-color="#1D5C97" offset="100%"></stop>
        </linearGradient>
        <polyline id="path-19" points="39.376 0.063 39.376 43.78 27.273 43.78 27.273 26.12 12.455 26.12 12.455 43.78 0.291 43.78 0.291 0.063 12.455 0.063 12.455 16.426 27.273 16.426 27.273 0.063 39.376 0.063"></polyline>
        <linearGradient x1="-954.823845%" y1="49.7175012%" x2="100.000256%" y2="49.7175012%" id="linearGradient-21">
            <stop stop-color="#8E5692" offset="0%"></stop>
            <stop stop-color="#1D5C97" offset="100%"></stop>
        </linearGradient>
    </defs>
    <g id="Page-1" stroke="none" stroke-width="1" fill="none" fill-rule="evenodd">
        <g id="Logo-BSK-SOFTECH-EN-01" transform="translate(-92.000000, -115.000000)">
            <g id="Group" transform="translate(89.000000, 115.000000)">
                <polyline id="Fill-1" fill="#8F5592" points="136.768 62.971 140.974 58.516 169.009 28.851 153.141 28.851 132.968 52.083 126.771 59.228 126.771 4.856 115.392 0.466 115.392 80.54 126.771 85.971 126.771 67.098 153.64 97.347 169.138 97.347 136.768 62.971"></polyline>
                <path d="M61.063,61.448 L61.063,61.479 C61.081,61.93 61.092,62.386 61.092,62.85 C61.092,67.055 60.366,70.806 59.073,74.057 C58.63,75.171 58.124,76.229 57.556,77.224 C57.45,77.4 57.344,77.576 57.238,77.746 C57.238,77.748 57.238,77.749 57.238,77.751 C53.04,84.652 45.847,88.474 37.845,88.474 C25.471,88.474 14.598,79.095 14.598,62.971 C14.598,47.103 25.471,37.603 37.845,37.603 C38.137,37.603 38.436,37.61 38.728,37.617 C38.962,37.625 39.204,37.639 39.439,37.653 C39.567,37.66 39.688,37.667 39.809,37.674 C40.094,37.703 40.371,37.724 40.648,37.76 C40.802,37.777 40.957,37.797 41.108,37.818 C41.272,37.84 41.435,37.863 41.598,37.888 C41.664,37.897 41.728,37.904 41.794,37.916 C42.039,37.954 42.276,38.003 42.516,38.049 C42.786,38.1 43.055,38.151 43.321,38.211 C43.498,38.252 43.676,38.29 43.851,38.336 C43.865,38.336 43.879,38.336 43.894,38.343 C44.08,38.393 44.271,38.444 44.459,38.497 C44.619,38.542 44.777,38.588 44.935,38.636 C45.09,38.683 45.248,38.73 45.402,38.777 C45.658,38.863 45.914,38.948 46.163,39.041 C46.168,39.042 46.173,39.044 46.178,39.046 C46.286,39.085 46.392,39.128 46.499,39.169 C46.571,39.197 46.645,39.223 46.718,39.254 C46.903,39.325 47.088,39.396 47.266,39.475 C47.365,39.516 47.459,39.565 47.557,39.609 C47.75,39.694 47.942,39.783 48.132,39.874 C48.177,39.896 48.225,39.915 48.27,39.937 C48.298,39.951 48.333,39.965 48.362,39.98 C48.369,39.987 48.376,39.987 48.383,39.987 C48.485,40.039 48.581,40.1 48.682,40.152 C49.103,40.368 49.515,40.596 49.92,40.839 C49.997,40.884 50.079,40.923 50.155,40.969 C50.225,41.012 50.29,41.062 50.359,41.105 C50.663,41.297 50.961,41.498 51.256,41.705 C51.366,41.783 51.475,41.861 51.583,41.94 C51.921,42.188 52.251,42.444 52.575,42.711 C52.63,42.757 52.685,42.804 52.739,42.85 C53.1,43.154 53.452,43.468 53.793,43.797 C53.8,43.804 53.807,43.811 53.814,43.818 C54.183,44.174 54.542,44.542 54.887,44.928 C54.887,44.925 54.887,44.923 54.887,44.918 C55.293,41.317 56.695,37.945 58.908,35.006 C53.3,30.616 46.334,27.94 38.77,27.741 C38.464,27.733 38.151,27.727 37.845,27.727 L37.674,27.727 C37.454,27.727 37.233,27.733 37.012,27.741 C36.991,27.733 36.97,27.741 36.948,27.741 C28.353,28.004 20.532,31.427 14.598,36.927 L14.598,4.856 L3.22,11.161 L3.22,63.099 C3.22,64.864 3.348,66.593 3.582,68.279 C3.618,68.521 3.654,68.763 3.697,69.005 C3.697,69.019 3.697,69.026 3.704,69.033 C3.768,69.417 3.839,69.802 3.917,70.179 C4.066,70.94 4.245,71.695 4.444,72.442 C4.7,73.402 4.998,74.334 5.326,75.252 C5.518,75.765 5.71,76.277 5.924,76.782 C6.031,77.045 6.145,77.309 6.258,77.565 C6.394,77.864 6.529,78.156 6.664,78.447 C6.742,78.611 6.828,78.768 6.906,78.931 C7.013,79.166 7.133,79.394 7.254,79.622 C7.354,79.813 7.461,80.013 7.567,80.198 C7.788,80.604 8.016,81.009 8.258,81.408 C8.272,81.436 8.286,81.472 8.322,81.507 C8.557,81.906 8.798,82.297 9.055,82.681 C9.247,82.98 9.446,83.272 9.652,83.563 C9.759,83.72 9.866,83.87 9.98,84.026 C9.994,84.041 10.008,84.062 10.015,84.083 C10.214,84.354 10.414,84.624 10.62,84.887 C16.967,93.084 26.801,98.35 37.845,98.35 C55.222,98.35 69.617,85.307 72.107,68.3 C67.76,66.764 63.974,64.394 61.063,61.448" id="Fill-2" fill="#ED9A4F"></path>
                <path d="M70.116,48.603 C70.132,48.681 70.154,48.755 70.172,48.832 C70.154,48.755 70.132,48.681 70.116,48.603 Z" id="Stroke-3" stroke="#A1A4A0"></path>
                <path d="M76.662,55.471 C74.915,54.657 73.416,53.724 72.279,52.574 C72.277,52.567 72.276,52.56 72.274,52.553 C71.854,52.126 71.484,51.671 71.171,51.18 C71.072,51.023 70.979,50.867 70.894,50.703 C70.866,50.652 70.845,50.598 70.818,50.546 C70.765,50.442 70.714,50.336 70.666,50.229 C70.592,50.067 70.524,49.901 70.461,49.732 C70.427,49.638 70.391,49.544 70.359,49.448 C70.294,49.248 70.239,49.042 70.189,48.832 C70.171,48.755 70.149,48.681 70.133,48.603 C70.073,48.309 70.025,48.007 69.997,47.693 C69.976,47.416 69.961,47.138 69.961,46.854 C69.961,46.782 69.961,46.711 69.969,46.647 C69.964,46.638 69.958,46.628 69.954,46.619 C69.995,44.958 70.49,43.438 71.41,42.136 C73.474,39.211 77.608,37.354 83.314,37.354 C92.437,37.354 97.688,42.349 98.187,49.223 L109.558,49.223 C108.81,35.853 98.813,27.727 83.692,27.727 C75.623,27.727 69.055,30.146 64.664,33.981 C63.839,34.7 63.084,35.476 62.416,36.287 C62.387,36.315 62.366,36.351 62.344,36.379 C62.348,36.382 62.351,36.386 62.354,36.389 C59.919,39.397 58.583,42.994 58.583,46.854 C58.583,48.811 58.825,50.568 59.267,52.147 C59.466,52.66 59.637,53.194 59.807,53.734 C59.929,54.04 60.059,54.337 60.196,54.629 C60.254,54.751 60.318,54.868 60.378,54.987 C60.462,55.153 60.545,55.321 60.634,55.482 C60.707,55.614 60.785,55.741 60.861,55.87 C60.946,56.014 61.03,56.158 61.119,56.297 C61.201,56.427 61.288,56.552 61.374,56.679 C61.464,56.811 61.554,56.944 61.648,57.074 C61.739,57.198 61.833,57.319 61.926,57.44 C62.023,57.565 62.12,57.69 62.22,57.812 C62.317,57.929 62.416,58.044 62.516,58.159 C62.621,58.279 62.728,58.399 62.836,58.517 C62.937,58.625 63.039,58.733 63.142,58.839 C63.257,58.957 63.373,59.073 63.491,59.187 C63.595,59.288 63.7,59.388 63.807,59.486 C63.931,59.601 64.057,59.712 64.184,59.824 C64.291,59.917 64.398,60.01 64.508,60.102 C64.64,60.211 64.775,60.319 64.911,60.426 C65.021,60.514 65.131,60.601 65.244,60.687 C65.382,60.791 65.523,60.893 65.665,60.994 C65.781,61.077 65.896,61.162 66.014,61.243 C66.15,61.337 66.29,61.427 66.429,61.519 C66.559,61.604 66.687,61.69 66.818,61.773 C66.929,61.843 67.042,61.909 67.154,61.977 C68.107,62.556 69.11,63.083 70.154,63.562 C70.508,63.729 70.871,63.889 71.235,64.045 C71.35,64.093 71.463,64.143 71.578,64.191 C71.965,64.352 72.355,64.508 72.751,64.657 C73.065,64.776 73.387,64.895 73.716,65.014 C73.715,65.016 73.715,65.018 73.715,65.02 C74.875,65.433 76.071,65.817 77.266,66.173 C87.883,69.354 99.062,70.713 99.062,78.725 C99.062,79.6 98.941,80.447 98.706,81.251 C97.411,85.634 92.665,88.844 85.065,88.844 C78.924,88.844 74.306,86.809 71.616,83.606 C69.73,86.709 67.432,89.52 64.785,91.981 C69.73,96.066 76.811,98.471 85.186,98.471 C99.161,98.471 108.646,91.22 110.013,81.251 C110.126,80.426 110.184,79.586 110.184,78.725 C109.813,60.615 88.011,60.736 76.662,55.471" id="Fill-4" fill="#1D5B97"></path>
                <g id="Group-7" transform="translate(3.000000, 115.000000)">
                    <mask id="mask-2" fill="white">
                        <use xlink:href="#path-1"></use>
                    </mask>
                    <g id="Clip-6"></g>
                    <path d="M32.083,38.791 C30.848,40.766 29.036,42.331 26.649,43.483 C24.261,44.636 21.4,45.212 18.066,45.212 C13.003,45.212 8.835,43.999 5.562,41.569 C2.29,39.141 0.509,35.683 0.221,31.196 L13.126,31.196 C13.25,32.719 13.723,33.851 14.546,34.592 C15.37,35.333 16.378,35.703 17.572,35.703 C18.642,35.703 19.476,35.436 20.073,34.9 C20.669,34.366 20.968,33.604 20.968,32.616 C20.968,31.299 20.371,30.28 19.178,29.559 C17.983,28.839 16.09,28.046 13.497,27.182 C10.739,26.235 8.464,25.31 6.674,24.403 C4.883,23.499 3.34,22.14 2.043,20.328 C0.746,18.517 0.098,16.191 0.098,13.351 C0.098,10.634 0.797,8.298 2.197,6.343 C3.596,4.388 5.51,2.906 7.94,1.897 C10.368,0.889 13.126,0.384 16.214,0.384 C21.235,0.384 25.238,1.568 28.224,3.935 C31.208,6.302 32.844,9.626 33.132,13.907 L20.104,13.907 C19.939,12.548 19.517,11.54 18.838,10.881 C18.159,10.223 17.263,9.893 16.152,9.893 C15.205,9.893 14.463,10.14 13.929,10.634 C13.394,11.128 13.126,11.869 13.126,12.857 C13.126,14.092 13.713,15.06 14.886,15.759 C16.06,16.459 17.901,17.241 20.413,18.105 C23.17,19.093 25.455,20.061 27.266,21.007 C29.077,21.955 30.641,23.333 31.959,25.145 C33.276,26.956 33.935,29.303 33.935,32.184 C33.935,34.613 33.317,36.814 32.083,38.791" id="Fill-5" fill="url(#linearGradient-3)" mask="url(#mask-2)"></path>
                </g>
                <g id="Group-10" transform="translate(63.000000, 115.000000)">
                    <mask id="mask-5" fill="white">
                        <use xlink:href="#path-4"></use>
                    </mask>
                    <g id="Clip-9"></g>
                    <path d="M15.244,14.617 C13.473,16.614 12.588,19.34 12.588,22.798 C12.588,26.174 13.473,28.871 15.244,30.887 C17.013,32.904 19.442,33.913 22.529,33.913 C25.575,33.913 27.983,32.904 29.754,30.887 C31.523,28.871 32.409,26.174 32.409,22.798 C32.409,19.34 31.534,16.614 29.785,14.617 C28.035,12.621 25.617,11.622 22.529,11.622 C19.442,11.622 17.013,12.621 15.244,14.617 Z M33.798,3.255 C37.194,5.169 39.87,7.835 41.825,11.251 C43.78,14.669 44.758,18.517 44.758,22.798 C44.758,27.08 43.771,30.928 41.794,34.345 C39.818,37.762 37.132,40.427 33.736,42.341 C30.34,44.255 26.605,45.212 22.529,45.212 C18.454,45.212 14.708,44.255 11.292,42.341 C7.875,40.427 5.179,37.762 3.203,34.345 C1.227,30.928 0.239,27.08 0.239,22.798 C0.239,18.517 1.227,14.669 3.203,11.251 C5.179,7.835 7.875,5.169 11.292,3.255 C14.708,1.341 18.454,0.384 22.529,0.384 C26.646,0.384 30.402,1.341 33.798,3.255 Z" id="Fill-8" fill="url(#linearGradient-6)" mask="url(#mask-5)"></path>
                </g>
                <g id="Group-13" transform="translate(135.000000, 116.000000)">
                    <mask id="mask-8" fill="white">
                        <use xlink:href="#path-7"></use>
                    </mask>
                    <g id="Clip-12"></g>
                    <polyline id="Fill-11" fill="url(#linearGradient-9)" mask="url(#mask-8)" points="30.12 0.063 30.12 9.757 12.584 9.757 12.584 17.538 25.674 17.538 25.674 26.676 12.584 26.676 12.584 43.78 0.42 43.78 0.42 0.063 30.12 0.063"></polyline>
                </g>
                <g id="Group-16" transform="translate(189.000000, 116.000000)">
                    <mask id="mask-11" fill="white">
                        <use xlink:href="#path-10"></use>
                    </mask>
                    <g id="Clip-15"></g>
                    <polyline id="Fill-14" fill="url(#linearGradient-12)" mask="url(#mask-11)" points="36.26 0.063 36.26 9.757 24.467 9.757 24.467 43.78 12.364 43.78 12.364 9.757 0.694 9.757 0.694 0.063 36.26 0.063"></polyline>
                </g>
                <g id="Group-19" transform="translate(251.000000, 116.000000)">
                    <mask id="mask-14" fill="white">
                        <use xlink:href="#path-13"></use>
                    </mask>
                    <g id="Clip-18"></g>
                    <polyline id="Fill-17" fill="url(#linearGradient-15)" mask="url(#mask-14)" points="12.667 9.757 12.667 16.982 26.806 16.982 26.806 26.182 12.667 26.182 12.667 34.085 28.659 34.085 28.659 43.78 0.502 43.78 0.502 0.063 28.659 0.063 28.659 9.757 12.667 9.757"></polyline>
                </g>
                <g id="Group-22" transform="translate(306.000000, 115.000000)">
                    <mask id="mask-17" fill="white">
                        <use xlink:href="#path-16"></use>
                    </mask>
                    <g id="Clip-21"></g>
                    <path d="M31.668,2.7 C34.611,4.079 37.01,6.034 38.862,8.565 C40.714,11.097 41.97,14.03 42.628,17.364 L29.847,17.364 C29.146,15.635 28.057,14.288 26.575,13.32 C25.093,12.353 23.384,11.869 21.45,11.869 C18.773,11.869 16.612,12.868 14.966,14.864 C13.319,16.861 12.496,19.525 12.496,22.86 C12.496,26.194 13.319,28.871 14.966,30.887 C16.612,32.904 18.773,33.913 21.45,33.913 C23.384,33.913 25.093,33.418 26.575,32.431 C28.057,31.442 29.146,30.084 29.847,28.355 L42.628,28.355 C41.641,33.46 39.304,37.524 35.62,40.55 C31.936,43.576 27.274,45.088 21.635,45.088 C17.313,45.088 13.535,44.153 10.304,42.279 C7.072,40.406 4.582,37.782 2.833,34.406 C1.083,31.032 0.209,27.182 0.209,22.86 C0.209,18.538 1.083,14.689 2.833,11.313 C4.582,7.938 7.072,5.314 10.304,3.44 C13.535,1.568 17.313,0.631 21.635,0.631 C25.38,0.631 28.725,1.321 31.668,2.7" id="Fill-20" fill="url(#linearGradient-18)" mask="url(#mask-17)"></path>
                </g>
                <g id="Group-25" transform="translate(376.000000, 116.000000)">
                    <mask id="mask-20" fill="white">
                        <use xlink:href="#path-19"></use>
                    </mask>
                    <g id="Clip-24"></g>
                    <polyline id="Fill-23" fill="url(#linearGradient-21)" mask="url(#mask-20)" points="39.376 0.063 39.376 43.78 27.273 43.78 27.273 26.12 12.455 26.12 12.455 43.78 0.291 43.78 0.291 0.063 12.455 0.063 12.455 16.426 27.273 16.426 27.273 0.063 39.376 0.063"></polyline>
                </g>
                <polyline id="Fill-26" fill="#FFFFFE" points="56.194 165.639 66.294 153.943 60.089 148.439 83.844 138.819 77.287 163.597 71.187 158.221 61.113 169.887 56.194 165.639"></polyline>
                <path d="M84.214,138.399 L83.287,138.775 L60.369,148.056 L59.622,148.358 L65.944,153.966 L56.168,165.286 L55.842,165.665 L56.22,165.992 L60.761,169.912 L61.139,170.239 L61.466,169.861 L71.211,158.575 L76.818,163.517 L77.425,164.051 L84.214,138.399 Z M83.475,139.238 L77.148,163.141 L71.163,157.866 L61.087,169.534 L56.547,165.613 L66.645,153.92 L60.557,148.519 L83.475,139.238 Z" id="Fill-27" fill="#1D5B97"></path>
                <path d="M120.02,95.033 C120.02,93.755 118.984,92.72 117.706,92.72 C116.428,92.72 115.392,93.755 115.392,95.033 C115.392,96.311 116.428,97.347 117.706,97.347 C118.984,97.347 120.02,96.311 120.02,95.033" id="Fill-28" fill="#2F3231"></path>
                <path d="M128.022,95.033 C128.022,93.755 126.987,92.72 125.709,92.72 C124.431,92.72 123.395,93.755 123.395,95.033 C123.395,96.311 124.431,97.347 125.709,97.347 C126.987,97.347 128.022,96.311 128.022,95.033" id="Fill-29" fill="#8B8E8A"></path>
                <path d="M136.025,95.033 C136.025,93.755 134.989,92.72 133.711,92.72 C132.434,92.72 131.398,93.755 131.398,95.033 C131.398,96.311 132.434,97.347 133.711,97.347 C134.989,97.347 136.025,96.311 136.025,95.033" id="Fill-30" fill="#B6B8B4"></path>
                <path d="M141.125,175.741 C140.957,176.039 140.703,176.278 140.361,176.459 C140.021,176.64 139.602,176.73 139.107,176.73 C138.625,176.73 138.193,176.645 137.812,176.474 C137.431,176.303 137.126,176.064 136.898,175.756 C136.671,175.449 136.541,175.094 136.507,174.692 L137.732,174.692 C137.765,175 137.897,175.265 138.128,175.485 C138.359,175.706 138.668,175.816 139.057,175.816 C139.405,175.816 139.674,175.723 139.865,175.536 C140.055,175.348 140.151,175.107 140.151,174.813 C140.151,174.559 140.081,174.35 139.94,174.186 C139.799,174.021 139.625,173.893 139.418,173.799 C139.21,173.706 138.926,173.598 138.565,173.478 C138.123,173.337 137.764,173.197 137.486,173.056 C137.208,172.916 136.972,172.712 136.778,172.444 C136.584,172.176 136.487,171.825 136.487,171.39 C136.487,171.009 136.581,170.674 136.768,170.386 C136.956,170.099 137.223,169.876 137.571,169.719 C137.919,169.562 138.32,169.483 138.776,169.483 C139.499,169.483 140.072,169.657 140.497,170.005 C140.922,170.353 141.165,170.808 141.225,171.37 L139.99,171.37 C139.943,171.103 139.818,170.873 139.614,170.683 C139.41,170.492 139.13,170.396 138.776,170.396 C138.455,170.396 138.197,170.479 138.003,170.642 C137.809,170.806 137.712,171.042 137.712,171.35 C137.712,171.591 137.778,171.79 137.913,171.947 C138.046,172.104 138.215,172.228 138.419,172.318 C138.624,172.409 138.903,172.514 139.257,172.635 C139.706,172.775 140.072,172.917 140.356,173.061 C140.641,173.205 140.882,173.414 141.079,173.688 C141.276,173.963 141.375,174.324 141.375,174.772 C141.375,175.121 141.292,175.443 141.125,175.741" id="Fill-31" fill="#E2634B"></path>
                <path d="M151.011,170.858 C150.657,171.065 150.38,171.363 150.183,171.751 C149.986,172.14 149.887,172.591 149.887,173.106 C149.887,173.622 149.986,174.073 150.183,174.461 C150.38,174.85 150.657,175.147 151.011,175.355 C151.366,175.563 151.771,175.666 152.226,175.666 C152.674,175.666 153.074,175.563 153.425,175.355 C153.776,175.147 154.051,174.85 154.249,174.461 C154.446,174.073 154.544,173.622 154.544,173.106 C154.544,172.591 154.446,172.14 154.249,171.751 C154.051,171.363 153.776,171.065 153.425,170.858 C153.074,170.651 152.674,170.547 152.226,170.547 C151.771,170.547 151.366,170.651 151.011,170.858 Z M154.007,169.945 C154.54,170.252 154.958,170.683 155.262,171.234 C155.566,171.787 155.719,172.411 155.719,173.106 C155.719,173.802 155.566,174.426 155.262,174.979 C154.958,175.53 154.54,175.962 154.007,176.273 C153.476,176.584 152.881,176.74 152.226,176.74 C151.563,176.74 150.966,176.584 150.434,176.273 C149.902,175.962 149.482,175.53 149.174,174.979 C148.867,174.426 148.713,173.802 148.713,173.106 C148.713,172.411 148.867,171.787 149.174,171.234 C149.482,170.683 149.902,170.252 150.434,169.945 C150.966,169.637 151.563,169.483 152.226,169.483 C152.881,169.483 153.476,169.637 154.007,169.945 Z" id="Fill-32" fill="#E2634B"></path>
                <polyline id="Fill-33" fill="#E2634B" points="167.482 169.573 167.482 170.497 164.441 170.497 164.441 172.695 166.95 172.695 166.95 173.578 164.441 173.578 164.441 176.66 163.296 176.66 163.296 169.573 167.482 169.573"></polyline>
                <polyline id="Fill-34" fill="#E2634B" points="179.487 169.573 179.487 170.497 177.509 170.497 177.509 176.66 176.355 176.66 176.355 170.497 174.388 170.497 174.388 169.573 179.487 169.573"></polyline>
                <polyline id="Fill-35" fill="#E2634B" points="195.737 169.573 193.971 176.66 192.565 176.66 191.07 171.179 189.574 176.66 188.169 176.66 186.402 169.573 187.657 169.573 188.882 175.335 190.438 169.573 191.702 169.573 193.258 175.335 194.482 169.573 195.737 169.573"></polyline>
                <path d="M207.09,174.241 L205.916,170.928 L204.741,174.241 L207.09,174.241 Z M207.411,175.124 L204.42,175.124 L203.878,176.66 L202.653,176.66 L205.263,169.684 L206.578,169.684 L209.178,176.66 L207.953,176.66 L207.411,175.124 Z" id="Fill-36" fill="#E2634B"></path>
                <path d="M217.599,173.016 L218.863,173.016 C219.787,173.016 220.249,172.608 220.249,171.792 C220.249,171.403 220.136,171.101 219.912,170.883 C219.688,170.666 219.338,170.557 218.863,170.557 L217.599,170.557 L217.599,173.016 Z M220.178,176.66 L218.412,173.829 L217.599,173.829 L217.599,176.66 L216.454,176.66 L216.454,169.573 L218.954,169.573 C219.763,169.573 220.377,169.771 220.795,170.166 C221.213,170.561 221.423,171.083 221.423,171.731 C221.423,172.287 221.267,172.742 220.956,173.096 C220.645,173.451 220.195,173.679 219.606,173.779 L221.463,176.66 L220.178,176.66 Z" id="Fill-37" fill="#E2634B"></path>
                <polyline id="Fill-38" fill="#E2634B" points="230.025 170.497 230.025 172.645 232.635 172.645 232.635 173.528 230.025 173.528 230.025 175.726 232.936 175.726 232.936 176.66 228.88 176.66 228.88 169.573 232.936 169.573 232.936 170.497 230.025 170.497"></polyline>
                <path d="M251.881,175.445 C252.092,175.238 252.197,174.97 252.197,174.642 C252.197,174.415 252.139,174.209 252.021,174.025 C251.904,173.841 251.75,173.697 251.56,173.593 C251.369,173.49 251.17,173.438 250.963,173.438 C250.642,173.438 250.38,173.537 250.18,173.734 C249.979,173.931 249.878,174.21 249.878,174.572 C249.878,174.94 249.994,175.229 250.225,175.44 C250.456,175.651 250.738,175.756 251.073,175.756 C251.401,175.756 251.67,175.653 251.881,175.445 Z M254.205,176.66 L252.88,175.164 C252.873,175.231 252.84,175.348 252.779,175.516 C252.686,175.877 252.483,176.169 252.172,176.394 C251.861,176.618 251.491,176.73 251.063,176.73 C250.628,176.73 250.247,176.64 249.919,176.459 C249.591,176.278 249.336,176.027 249.156,175.706 C248.975,175.385 248.885,175.017 248.885,174.602 C248.885,174.181 248.967,173.816 249.131,173.508 C249.295,173.2 249.517,172.966 249.798,172.805 C250.08,172.645 250.391,172.564 250.732,172.564 L250.802,172.564 L250.671,172.384 C250.511,172.183 250.387,171.984 250.3,171.787 C250.213,171.589 250.17,171.367 250.17,171.119 C250.17,170.838 250.242,170.574 250.386,170.326 C250.529,170.079 250.744,169.879 251.028,169.729 C251.313,169.578 251.652,169.503 252.047,169.503 C252.635,169.503 253.085,169.644 253.397,169.925 C253.708,170.206 253.904,170.561 253.984,170.989 C254.044,171.209 254.067,171.447 254.054,171.701 L252.97,171.701 L252.97,171.591 C252.97,171.49 252.967,171.417 252.96,171.37 C252.954,171.089 252.872,170.868 252.714,170.708 C252.557,170.547 252.341,170.467 252.067,170.467 C251.813,170.467 251.613,170.541 251.47,170.688 C251.326,170.834 251.254,171.015 251.254,171.229 C251.254,171.41 251.289,171.567 251.359,171.701 C251.429,171.835 251.538,171.992 251.686,172.173 L255.379,176.66 L254.205,176.66 Z" id="Fill-39" fill="#E2634B"></path>
                <polyline id="Fill-40" fill="#E2634B" points="275.875 169.573 275.875 170.497 273.898 170.497 273.898 176.66 272.744 176.66 272.744 170.497 270.776 170.497 270.776 169.573 275.875 169.573"></polyline>
                <polyline id="Fill-41" fill="#E2634B" points="284.297 170.497 284.297 172.645 286.907 172.645 286.907 173.528 284.297 173.528 284.297 175.726 287.208 175.726 287.208 176.66 283.152 176.66 283.152 169.573 287.208 169.573 287.208 170.497 284.297 170.497"></polyline>
                <path d="M300.076,170.166 C300.651,170.607 301.039,171.206 301.24,171.962 L300.025,171.962 C299.858,171.534 299.592,171.194 299.228,170.943 C298.863,170.692 298.416,170.567 297.888,170.567 C297.466,170.567 297.089,170.671 296.758,170.878 C296.427,171.085 296.166,171.382 295.976,171.767 C295.785,172.151 295.689,172.601 295.689,173.117 C295.689,173.625 295.785,174.072 295.976,174.457 C296.166,174.841 296.427,175.137 296.758,175.345 C297.089,175.552 297.466,175.656 297.888,175.656 C298.416,175.656 298.863,175.53 299.228,175.279 C299.592,175.029 299.858,174.692 300.025,174.271 L301.24,174.271 C301.039,175.027 300.651,175.624 300.076,176.063 C299.5,176.501 298.777,176.72 297.908,176.72 C297.238,176.72 296.646,176.568 296.131,176.263 C295.616,175.959 295.218,175.534 294.937,174.988 C294.655,174.443 294.515,173.819 294.515,173.117 C294.515,172.414 294.655,171.79 294.937,171.245 C295.218,170.699 295.616,170.272 296.131,169.965 C296.646,169.657 297.238,169.503 297.908,169.503 C298.777,169.503 299.5,169.724 300.076,170.166" id="Fill-42" fill="#E2634B"></path>
                <polyline id="Fill-43" fill="#E2634B" points="314.439 169.573 314.439 176.66 313.285 176.66 313.285 173.478 309.952 173.478 309.952 176.66 308.808 176.66 308.808 169.573 309.952 169.573 309.952 172.544 313.285 172.544 313.285 169.573 314.439 169.573"></polyline>
                <polyline id="Fill-44" fill="#E2634B" points="327.979 176.66 326.835 176.66 323.392 171.43 323.392 176.66 322.248 176.66 322.248 169.583 323.392 169.583 326.835 174.833 326.835 169.583 327.979 169.583 327.979 176.66"></polyline>
                <path d="M337.856,170.858 C337.501,171.065 337.225,171.363 337.028,171.751 C336.831,172.14 336.732,172.591 336.732,173.106 C336.732,173.622 336.831,174.073 337.028,174.461 C337.225,174.85 337.501,175.147 337.856,175.355 C338.21,175.563 338.615,175.666 339.07,175.666 C339.519,175.666 339.918,175.563 340.27,175.355 C340.621,175.147 340.896,174.85 341.093,174.461 C341.291,174.073 341.389,173.622 341.389,173.106 C341.389,172.591 341.291,172.14 341.093,171.751 C340.896,171.363 340.621,171.065 340.27,170.858 C339.918,170.651 339.519,170.547 339.07,170.547 C338.615,170.547 338.21,170.651 337.856,170.858 Z M340.852,169.945 C341.384,170.252 341.802,170.683 342.107,171.234 C342.411,171.787 342.563,172.411 342.563,173.106 C342.563,173.802 342.411,174.426 342.107,174.979 C341.802,175.53 341.384,175.962 340.852,176.273 C340.32,176.584 339.726,176.74 339.07,176.74 C338.408,176.74 337.811,176.584 337.279,176.273 C336.747,175.962 336.327,175.53 336.019,174.979 C335.711,174.426 335.558,173.802 335.558,173.106 C335.558,172.411 335.711,171.787 336.019,171.234 C336.327,170.683 336.747,170.252 337.279,169.945 C337.811,169.637 338.408,169.483 339.07,169.483 C339.726,169.483 340.32,169.637 340.852,169.945 Z" id="Fill-45" fill="#E2634B"></path>
                <polyline id="Fill-46" fill="#E2634B" points="351.286 175.766 353.735 175.766 353.735 176.66 350.142 176.66 350.142 169.573 351.286 169.573 351.286 175.766"></polyline>
                <path d="M363.12,170.858 C362.766,171.065 362.489,171.363 362.292,171.751 C362.095,172.14 361.996,172.591 361.996,173.106 C361.996,173.622 362.095,174.073 362.292,174.461 C362.489,174.85 362.766,175.147 363.12,175.355 C363.475,175.563 363.879,175.666 364.334,175.666 C364.783,175.666 365.183,175.563 365.534,175.355 C365.885,175.147 366.16,174.85 366.357,174.461 C366.555,174.073 366.653,173.622 366.653,173.106 C366.653,172.591 366.555,172.14 366.357,171.751 C366.16,171.363 365.885,171.065 365.534,170.858 C365.183,170.651 364.783,170.547 364.334,170.547 C363.879,170.547 363.475,170.651 363.12,170.858 Z M366.116,169.945 C366.648,170.252 367.066,170.683 367.371,171.234 C367.675,171.787 367.828,172.411 367.828,173.106 C367.828,173.802 367.675,174.426 367.371,174.979 C367.066,175.53 366.648,175.962 366.116,176.273 C365.584,176.584 364.99,176.74 364.334,176.74 C363.672,176.74 363.075,176.584 362.543,176.273 C362.011,175.962 361.591,175.53 361.283,174.979 C360.976,174.426 360.822,173.802 360.822,173.106 C360.822,172.411 360.976,171.787 361.283,171.234 C361.591,170.683 362.011,170.252 362.543,169.945 C363.075,169.637 363.672,169.483 364.334,169.483 C364.99,169.483 365.584,169.637 366.116,169.945 Z" id="Fill-47" fill="#E2634B"></path>
                <path d="M380.756,170.135 C381.318,170.55 381.689,171.116 381.87,171.832 L380.666,171.832 C380.512,171.45 380.259,171.146 379.908,170.918 C379.557,170.691 379.14,170.577 378.658,170.577 C378.216,170.577 377.82,170.681 377.469,170.888 C377.117,171.096 376.843,171.39 376.646,171.771 C376.448,172.153 376.35,172.601 376.35,173.117 C376.35,173.659 376.45,174.124 376.65,174.512 C376.852,174.9 377.134,175.196 377.499,175.4 C377.863,175.604 378.287,175.706 378.769,175.706 C379.357,175.706 379.863,175.524 380.284,175.159 C380.706,174.794 380.96,174.294 381.047,173.659 L378.447,173.659 L378.447,172.815 L382.011,172.815 L382.011,173.909 C381.93,174.431 381.745,174.905 381.454,175.33 C381.163,175.755 380.777,176.094 380.299,176.349 C379.821,176.603 379.273,176.73 378.658,176.73 C377.969,176.73 377.36,176.576 376.831,176.268 C376.303,175.96 375.895,175.534 375.607,174.988 C375.319,174.443 375.175,173.819 375.175,173.117 C375.175,172.414 375.319,171.79 375.607,171.245 C375.895,170.699 376.301,170.274 376.826,169.97 C377.352,169.666 377.959,169.513 378.648,169.513 C379.491,169.513 380.194,169.721 380.756,170.135" id="Fill-48" fill="#E2634B"></path>
                <polygon id="Fill-49" fill="#E2634B" points="389.588 176.66 390.733 176.66 390.733 169.573 389.588 169.573"></polygon>
                <polyline id="Fill-50" fill="#E2634B" points="399.686 170.497 399.686 172.645 402.296 172.645 402.296 173.528 399.686 173.528 399.686 175.726 402.597 175.726 402.597 176.66 398.542 176.66 398.542 169.573 402.597 169.573 402.597 170.497 399.686 170.497"></polyline>
                <path d="M414.542,175.741 C414.374,176.039 414.12,176.278 413.778,176.459 C413.438,176.64 413.019,176.73 412.524,176.73 C412.042,176.73 411.61,176.645 411.229,176.474 C410.848,176.303 410.543,176.064 410.315,175.756 C410.088,175.449 409.958,175.094 409.924,174.692 L411.149,174.692 C411.182,175 411.314,175.265 411.545,175.485 C411.776,175.706 412.085,175.816 412.474,175.816 C412.822,175.816 413.091,175.723 413.282,175.536 C413.472,175.348 413.568,175.107 413.568,174.813 C413.568,174.559 413.498,174.35 413.357,174.186 C413.216,174.021 413.042,173.893 412.835,173.799 C412.627,173.706 412.343,173.598 411.982,173.478 C411.54,173.337 411.181,173.197 410.903,173.056 C410.625,172.916 410.389,172.712 410.195,172.444 C410.001,172.176 409.904,171.825 409.904,171.39 C409.904,171.009 409.998,170.674 410.185,170.386 C410.373,170.099 410.64,169.876 410.988,169.719 C411.336,169.562 411.737,169.483 412.193,169.483 C412.916,169.483 413.489,169.657 413.914,170.005 C414.339,170.353 414.582,170.808 414.642,171.37 L413.407,171.37 C413.36,171.103 413.235,170.873 413.031,170.683 C412.827,170.492 412.547,170.396 412.193,170.396 C411.872,170.396 411.614,170.479 411.42,170.642 C411.226,170.806 411.129,171.042 411.129,171.35 C411.129,171.591 411.195,171.79 411.33,171.947 C411.463,172.104 411.632,172.228 411.836,172.318 C412.041,172.409 412.32,172.514 412.674,172.635 C413.123,172.775 413.489,172.917 413.773,173.061 C414.058,173.205 414.299,173.414 414.496,173.688 C414.693,173.963 414.792,174.324 414.792,174.772 C414.792,175.121 414.708,175.443 414.542,175.741" id="Fill-51" fill="#E2634B"></path>
            </g>
        </g>
    </g>
</svg>